<svg width="32" height="32" viewBox="0 0 32 32" fill="none" xmlns="http://www.w3.org/2000/svg">
  <rect width="32" height="32" rx="8" fill="#003178"/>
  <path d="M16 23.5C16 23.5 16.5 18 20.5 16C16.5 14 16 8.5 16 8.5C16 8.5 15.5 14 11.5 16C15.5 18 16 23.5 16 23.5Z" fill="white"/>
  <path d="M23.5 11.5C23.5 11.5 23.75 9.25 25.25 8.5C23.75 7.75 23.5 5.5 23.5 5.5C23.5 5.5 23.25 7.75 21.75 8.5C23.25 9.25 23.5 11.5 23.5 11.5Z" fill="white" fill-opacity="0.8"/>
  <path d="M8.5 25.5C8.5 25.5 8.75 23.25 10.25 22.5C8.75 21.75 8.5 19.5 8.5 19.5C8.5 19.5 8.25 21.75 6.75 22.5C8.25 23.25 8.5 25.5 8.5 25.5Z" fill="white" fill-opacity="0.8"/>
</svg>
